<svg width="145" height="40" xmlns="http://www.w3.org/2000/svg" class="canvas">

 <g>
  <title>background</title>
  <rect fill="none" id="canvas_background" height="42" width="147" y="-1" x="-1"/>
 </g>
 <g>
  <title>Layer 1</title>
  <g opacity="0.95" class="logo__item" id="logo__item--business">
   <g id="svg_1" transform="translate(449, 271.679) scale(1)" class="logo__item__inner">
    <text x="-399.081421" y="-238.593323" id="svg_2" font-style="normal" font-weight="normal" fill="#5A4A42" font-size="32px" font-family="Open Sans">好学兔</text>
   </g>
  </g>
  <g opacity="0.95" class="logo__item" id="logo__item--logo_0">
   <g id="svg_3" transform="translate(396.571, 233) scale(0.499722)" class="logo__item__inner">
    <g id="svg_4">
     <path id="svg_5" d="m-721.99939,-388.171448c-0.543945,0 -1.094971,-0.106995 -1.641968,-0.307007l-21.289978,-7.695984c-2.281006,-0.821014 -2.595032,-2.389008 -2.626038,-3.018005c-0.031006,-0.631012 0.137024,-2.215027 2.332031,-3.251007l20.471985,-9.652985c0.66803,-0.307007 1.343994,-0.473999 2.010986,-0.473999c2.182983,0 3.845032,1.708984 3.952026,4.063965l0.742981,15.905029c0.062012,1.269989 -0.336975,2.422974 -1.119995,3.242981c-0.726013,0.763 -1.734009,1.187012 -2.832031,1.187012l0,0l0,0z" fill="#5A4A42"/>
     <path id="svg_6" d="m-720.150391,-392.508453l-0.740967,-15.897003c-0.078979,-1.71698 -1.410034,-2.513 -2.960999,-1.78299l-1.281982,0.605011l-0.81604,9.428986l-1.513977,-8.334015l-4.130005,1.949005l-0.570984,6.675018l-1.075012,-5.895996l-4.809021,2.263977l-0.336975,3.924011l-0.630981,-3.468018l-5.307007,2.505005c-1.550049,0.730011 -1.497009,1.800018 0.109985,2.381012l21.286011,7.70401c1.607971,0.579987 2.860962,-0.341003 2.777954,-2.058014l0,0z" fill="#FFFFFF"/>
     <path id="svg_7" d="m-707.839355,-398.181458c-1.578979,0.075012 -11.60199,-0.746002 -11.677002,-2.321991c-0.06897,-1.575012 9.833008,-3.324005 11.411987,-3.399017c1.580017,-0.073975 2.915039,1.153015 2.994019,2.728027c0.070007,1.575989 -1.14801,2.918976 -2.729004,2.992981l0,0z" fill="#5A4A42"/>
     <path id="svg_8" d="m-712.71936,-391.264465c-1.078003,-0.678986 -7.348022,-5.829987 -6.674988,-6.90799c0.679016,-1.085999 8.052002,2.313995 9.130005,2.993988c1.086975,0.68103 1.414001,2.106995 0.737976,3.186005c-0.680969,1.084991 -2.106018,1.40799 -3.192993,0.727997l0,0z" fill="#5A4A42"/>
     <path id="svg_9" d="m-713.606384,-410.339447c-1.016968,0.780975 -6.779968,6.493988 -6.004944,7.506012c0.779968,1.019989 7.799988,-3.060028 8.812988,-3.831024c1.015991,-0.779999 1.204956,-2.230011 0.430969,-3.243011c-0.776001,-1.010986 -2.227966,-1.201965 -3.239014,-0.431976l0,0z" fill="#5A4A42"/>
     <path id="svg_10" d="m-776.260376,-388.171448c0.539001,0 1.093018,-0.106995 1.642029,-0.307007l21.286011,-7.695984c2.281982,-0.821014 2.593994,-2.389008 2.628967,-3.018005c0.028015,-0.631012 -0.141968,-2.215027 -2.335999,-3.251007l-20.471985,-9.652985c-0.664001,-0.307007 -1.338989,-0.473999 -2.009033,-0.473999c-2.180969,0 -3.841003,1.708984 -3.953979,4.063965l-0.744995,15.905029c-0.057983,1.269989 0.340027,2.422974 1.122009,3.242981c0.729004,0.763 1.735962,1.187012 2.836975,1.187012l0,0l0,0z" fill="#5A4A42"/>
     <path id="svg_11" d="m-778.115356,-392.508453l0.745972,-15.897003c0.079041,-1.71698 1.412048,-2.513 2.960022,-1.78299l1.28302,0.605011l0.812988,9.428986l1.515991,-8.334015l4.127991,1.949005l0.577026,6.675018l1.07196,-5.895996l4.809998,2.263977l0.338013,3.924011l0.629028,-3.468018l5.305969,2.505005c1.551025,0.730011 1.5,1.800018 -0.109009,2.381012l-21.28595,7.70401c-1.613037,0.579987 -2.864014,-0.341003 -2.78302,-2.058014l0,0z" fill="#FFFFFF"/>
     <path id="svg_12" d="m-790.424377,-398.181458c1.580017,0.075012 11.604004,-0.746002 11.67804,-2.321991c0.070984,-1.575012 -9.833008,-3.324005 -11.411011,-3.399017c-1.578003,-0.073975 -2.916992,1.153015 -2.996033,2.728027c-0.072998,1.575989 1.149048,2.918976 2.729004,2.992981l0,0z" fill="#5A4A42"/>
     <path id="svg_13" d="m-785.546387,-391.264465c1.081055,-0.678986 7.354004,-5.829987 6.676025,-6.90799c-0.677979,-1.085999 -8.047974,2.313995 -9.130981,2.993988c-1.079041,0.68103 -1.407043,2.106995 -0.731018,3.186005c0.677002,1.084991 2.10498,1.40799 3.185974,0.727997l0,0z" fill="#5A4A42"/>
     <path id="svg_14" d="m-784.655334,-410.339447c1.011963,0.780975 6.777954,6.493988 6.001953,7.506012c-0.776978,1.019989 -7.79895,-3.060028 -8.80896,-3.831024c-1.014038,-0.779999 -1.208008,-2.230011 -0.432007,-3.243011c0.776001,-1.010986 2.22699,-1.201965 3.239014,-0.431976l0,0z" fill="#5A4A42"/>
     <path id="svg_15" d="m-764.165344,-461.721466c5.10498,1.542023 8.940002,8.334015 8.914978,16.470001c-0.016968,4.876007 -1.429016,9.255005 -3.651001,12.315002c-5.110962,-1.550995 -8.940979,-8.342987 -8.914978,-16.479004c0.018005,-4.875977 1.429016,-9.245972 3.651001,-12.306l0,0z" fill="#FCC588"/>
     <path id="svg_16" d="m-763.599365,-462.11145c-1.96698,3.109985 -3.094971,7.281006 -3.112,11.609985c-0.020996,7.489014 3.179993,14.02301 7.734009,16.038025c1.96698,-3.109009 3.094971,-7.27301 3.112,-11.60202c0.021973,-7.488007 -3.179016,-14.031982 -7.734009,-16.04599l0,0l0,0zm5.635986,30.742004l-0.888,-0.265991c-6.093994,-1.84903 -10.492981,-9.786011 -10.462952,-18.883026c0.019958,-5.324005 1.496948,-10.274994 4.158997,-13.932983l0.541992,-0.746002l0.888,0.265991c6.091003,1.848999 10.492981,9.785004 10.463013,18.875c-0.019043,5.324005 -1.494019,10.274994 -4.156006,13.94101l-0.545044,0.746002l0,0l0,0z" fill="#5A4A42"/>
     <path id="svg_17" d="m-758.853333,-434.056458c0.754944,-2.429993 1.142944,-5.165985 1.135986,-8.027985c-0.02301,-5.913025 -1.835022,-11.261017 -4.635986,-14.072998c-0.754028,2.438995 -1.14502,5.166992 -1.134033,8.027985c0.023987,5.912994 1.830994,11.261993 4.634033,14.072998l0,0l0,0z" fill="#5A4A42"/>
     <path id="svg_18" d="m-736.180359,-461.721466c-5.106995,1.542023 -8.940979,8.334015 -8.913025,16.470001c0.019043,4.876007 1.427002,9.255005 3.651001,12.315002c5.104004,-1.550995 8.939026,-8.342987 8.915039,-16.479004c-0.02002,-4.875977 -1.43103,-9.245972 -3.653015,-12.306l0,0z" fill="#FCC588"/>
     <path id="svg_19" d="m-734.66333,-462.11145c-4.552002,2.014984 -7.756042,8.55899 -7.731018,16.046997c0.018005,4.32901 1.138977,8.5 3.106995,11.60199c4.559021,-2.014984 7.76001,-8.548981 7.734009,-16.037994c-0.015991,-4.329987 -1.139038,-8.501007 -3.109985,-11.610992l0,0l0,0zm-5.634033,30.742004l-0.542969,-0.746002c-2.664001,-3.65799 -4.141052,-8.608002 -4.159058,-13.94101c-0.027954,-9.088989 4.374023,-17.026001 10.466003,-18.875l0.888,-0.265991l0.541992,0.746002c2.662048,3.656982 4.140015,8.608002 4.155029,13.932983c0.033997,9.097015 -4.369995,17.033997 -10.464966,18.883026l-0.884033,0.265991l0,0l0,0z" fill="#5A4A42"/>
     <path id="svg_20" d="m-739.411377,-434.056458c-0.753967,-2.429993 -1.140991,-5.165985 -1.130981,-8.027985c0.020996,-5.913025 1.83197,-11.261017 4.635986,-14.072998c0.754028,2.438995 1.144043,5.166992 1.127991,8.027985c-0.016968,5.912994 -1.828979,11.261993 -4.632996,14.072998l0,0l0,0z" fill="#5A4A42"/>
     <path id="svg_21" d="m-727.895386,-419.211456c0.774048,1.634003 -12.857971,6.973999 -16.730957,8.300995c-3.814026,2.139008 -7.466003,1.617004 -11.097046,0.199005c-3.867981,-1.285004 -17.503967,-6.618011 -16.72699,-8.285004c2.347046,-5.36499 4.692017,-8.34198 7.038025,-13.71698c0.776978,-1.675018 3.268005,-3.068024 5.546997,-3.093018c6.464966,0.041992 12.924011,0.083008 19.385986,0.115997c2.28302,0.058014 4.768005,1.442017 5.544006,3.076996c2.346008,5.275024 4.692993,8.136017 7.039978,13.402008l0,0z" fill="#FCC588"/>
     <path id="svg_22" d="m-771.564331,-417.909454c1.771973,1.649017 11.418945,5.753998 16.906982,7.579987c2.218018,0.861023 4.015991,1.252014 5.714966,1.252014c1.791016,0 3.463013,-0.447998 5.106018,-1.369019l0.216003,-0.099976c5.770996,-1.981018 15.13501,-5.987 16.914001,-7.604004c-1.156982,-2.528992 -2.289978,-4.494019 -3.479004,-6.559998c-1.252991,-2.164001 -2.546021,-4.411987 -3.830994,-7.289001c-0.539001,-1.136993 -2.642029,-2.472015 -4.776978,-2.520996l-20.716003,-0.125c-1.897034,0.024994 -4.125,1.218994 -4.751038,2.554993c-1.268005,2.902008 -2.557983,5.200012 -3.807007,7.421997c-1.201965,2.139008 -2.34198,4.171997 -3.496948,6.759003l0,0l0,0zm22.622986,11.444c-2.036011,0 -4.134033,-0.455994 -6.603027,-1.419006c-0.106018,-0.031982 -17.22699,-5.987 -18.604004,-9.187988c-0.208008,-0.489014 -0.208008,-0.994995 0.002014,-1.434998c1.263977,-2.910004 2.559021,-5.208008 3.807983,-7.438019c1.274048,-2.263977 2.478027,-4.402985 3.705994,-7.214996c1.054993,-2.272003 4.176025,-4.054993 7.116028,-4.087982l20.765991,0.125c2.952026,0.065979 6.062012,1.839996 7.104004,4.029999c1.23999,2.794983 2.440002,4.875977 3.718018,7.083008c1.25,2.164978 2.542969,4.411987 3.823975,7.289978c0.195007,0.406006 0.197998,0.912018 0,1.393005c-1.276978,3.035004 -17.050964,8.682983 -18.554016,9.205994c-2.010986,1.108002 -4.070984,1.656006 -6.282959,1.656006l0,0l0,0z" fill="#5A4A42"/>
     <path id="svg_23" d="m-747.483337,-424.543457c0,0.539001 -0.738037,0.977997 -1.64801,0.977997c-0.906982,0 -1.651001,-0.437988 -1.651001,-0.977997c0,-0.549011 0.744995,-0.97998 1.651001,-0.97998c0.909973,0 1.64801,0.430969 1.64801,0.97998l0,0z" fill="#FFFFFF"/>
     <line id="svg_24" y2="-427.082868" x2="-722.228021" y1="-422.040868" x1="-737.408021" fill="#5A4A42"/>
     <path id="svg_25" d="m-737.408386,-421.608459c-0.181946,0 -0.35199,-0.11499 -0.414001,-0.298004c-0.074951,-0.233002 0.050049,-0.473999 0.277039,-0.548004l15.182007,-5.041992c0.230957,-0.074982 0.47699,0.049011 0.546997,0.282013c0.078979,0.223999 -0.046021,0.462982 -0.273987,0.548004l-15.176025,5.041992c-0.049988,0.007996 -0.099976,0.015991 -0.142029,0.015991l0,0l0,0z" fill="#5A4A42"/>
     <line id="svg_26" y2="-422.147868" x2="-720.182021" y1="-419.610868" x1="-735.816021" fill="#5A4A42"/>
     <path id="svg_27" d="m-735.816345,-419.179443c-0.207031,0 -0.395996,-0.149017 -0.429993,-0.364014c-0.037048,-0.240997 0.122986,-0.463989 0.359985,-0.497986l15.632996,-2.528015c0.234985,-0.033997 0.460022,0.11499 0.497009,0.356018c0.036987,0.231995 -0.119995,0.454987 -0.361023,0.496979l-15.632019,2.529022c-0.019958,0.007996 -0.044983,0.007996 -0.066956,0.007996l0,0l0,0z" fill="#5A4A42"/>
     <line id="svg_28" y2="-416.516868" x2="-721.394021" y1="-416.252868" x1="-737.170021" fill="#5A4A42"/>
     <path id="svg_29" d="m-737.170349,-415.810455c-0.237,0 -0.427002,-0.19101 -0.437012,-0.432007c0,-0.240997 0.187012,-0.438995 0.432007,-0.438995l15.77301,-0.266998c0.229004,0.01001 0.438965,0.183014 0.438965,0.424011c0.009033,0.23999 -0.182983,0.438995 -0.422974,0.438995l-15.776978,0.273987l-0.007019,0l0,0.001007l0,0z" fill="#5A4A42"/>
     <line id="svg_30" y2="-427.082868" x2="-776.038021" y1="-422.040868" x1="-760.854021" fill="#FFFFFF"/>
     <path id="svg_31" d="m-760.85437,-421.608459c-0.044006,0 -0.091003,-0.007996 -0.136963,-0.015991l-15.182007,-5.041992c-0.230042,-0.085022 -0.353027,-0.324005 -0.276001,-0.548004c0.074951,-0.233002 0.31897,-0.356995 0.544983,-0.282013l15.184998,5.041992c0.228027,0.074005 0.35199,0.314026 0.276978,0.548004c-0.05896,0.183014 -0.22998,0.298004 -0.411987,0.298004l0,0l0,0z" fill="#5A4A42"/>
     <line id="svg_32" y2="-422.147868" x2="-778.076021" y1="-419.610868" x1="-762.445021" fill="#5A4A42"/>
     <path id="svg_33" d="m-762.445374,-419.179443c-0.02301,0 -0.044983,0 -0.070007,-0.007996l-15.631958,-2.529022c-0.237,-0.041992 -0.395996,-0.264984 -0.361023,-0.496979c0.041992,-0.241028 0.263,-0.391022 0.5,-0.356018l15.632019,2.528015c0.234985,0.033997 0.39801,0.256989 0.359985,0.497986c-0.035034,0.214996 -0.223022,0.364014 -0.429016,0.364014l0,0l0,0z" fill="#5A4A42"/>
     <line id="svg_34" y2="-416.516868" x2="-776.870021" y1="-416.252868" x1="-761.093021" fill="#5A4A42"/>
     <path id="svg_35" d="m-761.093384,-415.810455c0,0 -0.002991,0 -0.007996,0l-15.774963,-0.273987c-0.241028,0 -0.429016,-0.199005 -0.425049,-0.438995c0.002014,-0.241028 0.22406,-0.406006 0.439026,-0.424011l15.778015,0.266998c0.237976,0 0.429993,0.197998 0.422974,0.438995c0,0.239014 -0.195007,0.431 -0.432007,0.431l0,0l0,0z" fill="#5A4A42"/>
     <path id="svg_36" d="m-744.363342,-409.874451c-3.192993,0.466003 -3.609009,-1.53302 -3.712036,-2.195984c-0.269958,-1.751007 -0.396973,-4.247009 -0.441956,-5.384033c4.72998,-0.438995 6.912964,-5.20697 5.493958,-7.02298c-1.415955,-1.973999 -4.044006,-2.230011 -6.107971,-2.371002c-2.064026,0.140991 -4.690002,0.397003 -6.104004,2.371002c-1.424011,1.81601 0.763,6.583984 5.492004,7.02298c-0.044983,1.137024 -0.179016,3.633026 -0.442017,5.384033c-0.101013,0.662964 -0.517029,2.661987 -3.711975,2.195984c-1.200012,-0.173004 -2.302002,-0.290009 -3.26001,-0.70401c0.369019,0.520996 0.773987,0.813019 1.214966,1.26001c1.619019,0.580994 3.812012,0.987 6.796021,0.987c0.005005,0 0.009033,0 0.015991,0c0.007996,0 0.014038,0 0.014038,0c2.988953,0 5.182983,-0.406006 6.797974,-0.987c0.442017,-0.446991 0.848022,-0.729004 1.213013,-1.26001c-0.952026,0.414001 -2.059021,0.531006 -3.257996,0.70401l0,0z" fill="#5A4A42"/>
    </g>
   </g>
  </g>
 </g>
</svg>